<svg xmlns="http://www.w3.org/2000/svg"  viewBox="0 0 24 24" width="24px" height="24px"><path d="M 11 0 L 11 2.2773438 C 10.603313 2.5079564 10.293705 2.8656501 10.130859 3.3007812 C 7.7346864 4.0879721 6 6.3428493 6 9 L 6 9.5605469 C 4.8124718 10.256848 4 11.533354 4 13 C 4 14.466646 4.8124718 15.743152 6 16.439453 L 6 22 L 8 22 L 8 21 C 8 19.9 8.9 19 10 19 L 14 19 C 15.1 19 16 19.9 16 21 L 16 22 L 18 22 L 18 16.439453 C 19.187528 15.743152 20 14.466646 20 13 C 20 11.533354 19.187528 10.256848 18 9.5605469 L 18 9 C 18 6.3428493 16.265314 4.0879721 13.869141 3.3007812 C 13.706295 2.8656501 13.396687 2.5079564 13 2.2773438 L 13 0 L 11 0 z M 8 11 L 16 11 C 17.116666 11 18 11.883334 18 13 C 18 14.116666 17.116666 15 16 15 L 8 15 C 6.8833339 15 6 14.116666 6 13 C 6 11.883334 6.8833339 11 8 11 z M 8 12 L 8 14 L 10 14 L 10 12 L 8 12 z M 14 12 L 14 14 L 16 14 L 16 12 L 14 12 z"/></svg>